# AST/ASF file generated using VICON BodyLanguage
# -----------------------------------------------
:version 1.10
:name VICON
:units
  mass 1.0
  length 0.45
  angle deg
:documentation
   .ast/.asf automatically generated from VICON data using
   VICON BodyBuilder and BodyLanguage model FoxedUp or BRILLIANT.MOD
:root
   order TX TY TZ RX RY RZ
   axis XYZ
   position 0 0 0  
   orientation 0 0 0 
:bonedata
  begin
     id 1 
     name lhipjoint
     direction 0.692814 -0.645514 0.321437 
     length 2.38754 
     axis 0 0 0  XYZ
  end
  begin
     id 2 
     name lfemur
     direction 0.34202 -0.939693 0  
     length 6.41921  
     axis 0 0 20  XYZ
    dof rx ry rz
    limits (-160.0 20.0)
           (-70.0 70.0)
           (-60.0 70.0)
  end
  begin
     id 3 
     name ltibia
     direction 0.34202 -0.939693 0   
     length 6.98247   
     axis 0 0 20   XYZ
    dof rx
    limits (-10.0 170.0)
  end
  begin
     id 4 
     name lfoot
     direction 0.0947186 -0.260237 0.960888   
     length 1.83034   
     axis -90 7.62852e-016 20   XYZ
    dof rx rz
    limits (-45.0 90.0)
           (-70.0 20.0)
  end
  begin
     id 5 
     name ltoes
     direction 1.53538e-011 -4.21952e-011 1   
     length 0.920499   
     axis -90 7.62852e-016 20   XYZ
    dof rx
    limits (-90.0 20.0)
  end
  begin
     id 6 
     name rhipjoint
     direction -0.631686 -0.693949 0.345555   
     length 2.2209  
     axis 0 0 0  XYZ 
  end
  begin
     id 7 
     name rfemur
     direction -0.34202 -0.939693 0   
     length 6.49542   
     axis 0 0 -20   XYZ
    dof rx ry rz
    limits (-160.0 20.0)
           (-70.0 70.0)
           (-70.0 60.0)
  end
  begin
     id 8 
     name rtibia
     direction -0.34202 -0.939693 0   
     length 7.21712   
     axis 0 0 -20   XYZ
    dof rx
    limits (-10.0 170.0)
 end
 begin
     id 9 
     name rfoot
     direction -0.0825378 -0.226771 0.970444   
     length 1.89724  
     axis -90 -7.62852e-016 -20   XYZ
    dof rx rz
    limits (-45.0 90.0)
           (-20.0 70.0)
  end
  begin
     id 10 
     name rtoes
     direction -1.53515e-011 -4.22016e-011 1   
     length 0.955868   
     axis -90 -7.62852e-016 -20   XYZ
    dof rx
    limits (-90.0 20.0)
  end
  begin
     id 11 
     name lowerback
     direction -0.0104711 0.984802 -0.173368   
     length 1.84931   
     axis 0 0 0   XYZ
    dof rx ry rz
    limits (-20.0 45.0)
           (-30.0 30.0)
           (-30.0 30.0)
  end
  begin
     id 12 
     name upperback
     direction -0.00286433 0.999996 -0.000382853   
     length 1.85768   
     axis 0 0 0   XYZ
    dof rx ry rz
    limits (-20.0 45.0)
           (-30.0 30.0)
           (-30.0 30.0)
  end
  begin
     id 13 
     name thorax
     direction 0.00167534 0.996793 0.0800069   
     length 1.92   
     axis 0 0 0   XYZ
    dof rx ry rz
    limits (-20.0 45.0)
           (-30.0 30.0)
           (-30.0 30.0)
  end
  begin
     id 14 
     name lowerneck
     direction -0.0672491 0.995415 0.068018   
     length 1.58923   
     axis 0 0 0   XYZ
    dof rx ry rz
    limits (-20.0 45.0)
           (-30.0 30.0)
           (-30.0 30.0)
  end
  begin
     id 15 
     name upperneck
     direction 0.0958019 0.982476 -0.159884   
     length 1.60189   
     axis 0 0 0   XYZ
    dof rx ry rz
    limits (-20.0 45.0)
           (-30.0 30.0)
           (-30.0 30.0)
  end
  begin
     id 16
     name head
     direction 0.032989 0.997338 -0.0650226  
     length 1.61681  
     axis 0 0 0   XYZ
    dof rx ry rz
    limits (-20.0 45.0)
           (-30.0 30.0)
           (-30.0 30.0)
  end
  begin
     id 17 
     name lclavicle
     direction 0.954279 0.298875 -0.00496069  
     length 2.99449  
     axis 0 0 0   XYZ
    dof ry rz
    limits (-20.0 10.0)
           (0.0 20.0)
  end
  begin
     id 18 
     name lhumerus
     direction 1 -4.48985e-011 -4.2057e-027   
     length 4.79185   
     axis 180 -30 -90   XYZ
    dof rx ry rz
    limits (-60.0 90.0)
           (-90.0 90.0)
           (-90.0 90.0)
  end
  begin
     id 19
     name lradius
     direction 1 -4.48945e-011 1.15441e-028   
     length 2.65553   
     axis 180 -30 -90   XYZ
    dof rx
    limits (-10.0 170.0)
  end
  begin
     id 20
     name lwrist
     direction 1 -4.4899e-011 4.8894e-028   
     length 1.32777   
     axis -2.56392e-016 90 90   XYZ
    dof ry
    limits (-180.0 0.0)
 end
  begin
     id 21 
     name lhand
     direction 1 -4.48908e-011 9.7788e-028   
     length 0.743904   
     axis -6.23971e-016 90 90   XYZ
    dof rx rz
    limits (-90.0 90.0)
           (-45.0 45.0)
  end
  begin
     id 22 
     name lfingers
     direction 1 -4.49068e-011 1.95576e-027   
     length 0.599754   
     axis -1.24794e-015 90 90   XYZ
    dof rx
    limits (0.0 90.0)
  end
  begin
     id 23
     name lthumb
     direction 0.707107 -6.34883e-011 0.707107   
     length 0.861131   
     axis -90 45 2.85299e-015   XYZ
    dof rx rz
    limits (-45.0 45.0)
           (-45.0 45.0)
  end
  begin
     id 24 
     name rclavicle
     direction -0.957921 0.286916 0.00811568   
     length 3.06817  
     axis 0 0 0   XYZ 
    dof ry rz
    limits (-10.0 20.0)
           (-20.0 0.0)
  end
  begin
     id 25 
     name rhumerus
     direction -1 -4.48971e-011 -3.07942e-027  
     length 4.77254   
     axis 180 30 90   XYZ
    dof rx ry rz
    limits (-90.0 60.0)
           (-90.0 90.0)
           (-90.0 90.0)
  end
  begin
     id 26 
     name rradius
     direction -1 -4.48957e-011 -9.6815e-028   
     length 2.75995   
     axis 180 30 90   XYZ
    dof rx
    limits (-10.0 170.0)
  end
  begin
     id 27 
     name rwrist
     direction -1 -4.48979e-011 4.8894e-028   
     length 1.37997   
     axis -2.56392e-016 -90 -90   XYZ
    dof ry
    limits (-180.0 0.0)
  end
  begin
     id 28
     name rhand
     direction -1 -4.48906e-011 9.7788e-028   
     length 0.701619   
     axis -6.23971e-016 -90 -90   XYZ
    dof rx rz
    limits (-90.0 90.0)
           (-45.0 45.0)
  end
  begin
     id 29
     name rfingers
     direction -1 -4.49018e-011 1.95576e-027   
     length 0.565663   
     axis -1.24794e-015 -90 -90   XYZ
    dof rx
    limits (0.0 90.0)
  end
  begin
     id 30
     name rthumb
     direction -0.707107 -6.34881e-011 0.707107   
     length 0.812183   
     axis -90 -45 -2.85299e-015   XYZ
    dof rx rz
    limits (-45.0 45.0)
           (-45.0 45.0)
  end
:hierarchy
  begin
    root lhipjoint rhipjoint lowerback
    lhipjoint lfemur
    lfemur ltibia
    ltibia lfoot
    lfoot ltoes
    rhipjoint rfemur
    rfemur rtibia
    rtibia rfoot
    rfoot rtoes
    lowerback upperback
    upperback thorax
    thorax lowerneck lclavicle rclavicle
    lowerneck upperneck
    upperneck head
    lclavicle lhumerus
    lhumerus lradius
    lradius lwrist
    lwrist lhand lthumb
    lhand lfingers
    rclavicle rhumerus
    rhumerus rradius
    rradius rwrist
    rwrist rhand rthumb
    rhand rfingers
  end

#!OML:ASF F:\VICON\USERDATA\INSTALL\rory3\rory3.ASF
:FULLY-SPECIFIED
:DEGREES
193
root 0.300463 15.677 0.686146 -185.3 56.459 -185.59
lowerback 8.33697 1.32246 -3.47792
upperback -1.21398 1.33457 -1.74436
thorax -5.99242 0.758057 -0.048644
lowerneck -11.9383 -7.79931 -11.5729
upperneck 15.8905 -10.2413 10.549
head 8.03321 -4.61011 4.26358
rclavicle 4.7699e-014 8.74653e-015
rhumerus -33.3558 -5.76475 -85.0389
rradius 23.0168
rwrist 18.2974
rhand -15.5991 15.6496
rfingers 7.12502
rthumb 10.5869 -14.0637
lclavicle 4.7699e-014 8.74653e-015
lhumerus -33.1147 12.438 75.4571
lradius 17.4975
lwrist -12.2657
lhand -13.3527 14.4351
lfingers 7.12502
lthumb 12.7531 44.0256
rfemur -18.1472 0.690362 19.5556
rtibia 66.2972
rfoot -4.10104 -11.0696
rtoes -10.3505
lfemur -10.9166 -7.48066 -29.4745
ltibia 28.6506
lfoot -12.8219 7.71727
ltoes -5.95649
194
root 0.395811 15.66 0.614083 -185.495 56.2626 -185.841
lowerback 8.50957 1.26182 -3.66401
upperback -1.20339 1.22783 -1.71304
thorax -6.08175 0.713396 0.0989017
lowerneck -11.8922 -7.77784 -11.614
upperneck 15.8985 -10.1896 10.4483
head 8.01803 -4.59904 4.24425
rclavicle 5.13734e-014 1.59028e-014
rhumerus -33.5112 -5.90982 -84.7802
rradius 23.1056
rwrist 17.9342
rhand -15.9244 15.5609
rfingers 7.12502
rthumb 10.2731 -14.1682
lclavicle 5.13734e-014 1.59028e-014
lhumerus -32.5818 12.2647 75.8291
lradius 17.7608
lwrist -12.1629
lhand -13.1545 14.3353
lfingers 7.12502
lthumb 12.9443 43.9138
rfemur -19.5265 1.10503 19.479
rtibia 66.0548
rfoot -5.81892 -11.1406
rtoes -14.0367
lfemur -10.5649 -7.64382 -29.7703
ltibia 28.9217
lfoot -13.3671 7.76108
ltoes -6.28527
195
root 0.493004 15.6415 0.538735 -185.987 56.142 -186.294
lowerback 8.71076 1.23512 -3.90748
upperback -1.09217 1.16082 -1.73988
thorax -6.08165 0.688463 0.213885
lowerneck -11.9368 -7.7685 -11.6809
upperneck 15.8891 -10.1582 10.4407
head 8.02244 -4.58853 4.2551
rclavicle -5.1156e-015 -1.59028e-015
rhumerus -33.5261 -6.18108 -84.5109
rradius 23.1082
rwrist 17.7717
rhand -15.9173 15.6804
rfingers 7.12502
rthumb 10.28 -14.0484
lclavicle -5.1156e-015 -1.59028e-015
lhumerus -31.8403 12.3057 76.1095
lradius 17.8303
lwrist -12.415
lhand -12.8711 14.3511
lfingers 7.12502
lthumb 13.2175 43.9121
rfemur -20.7238 1.55078 19.2503
rtibia 65.6757
rfoot -6.8017 -11.06
rtoes -13.4599
lfemur -9.9727 -7.78075 -30.2315
ltibia 29.057
lfoot -13.9756 7.92752
ltoes -5.18157
196
root 0.593448 15.6222 0.459491 -186.486 56.0577 -186.637
lowerback 8.9559 1.20491 -4.05096
upperback -0.95739 1.09731 -1.77983
thorax -6.07865 0.661405 0.258394
lowerneck -11.9662 -7.72914 -11.6546
upperneck 15.9086 -10.1017 10.414
head 8.02437 -4.56153 4.24861
rclavicle -7.63519e-014 -2.3059e-014
rhumerus -33.5709 -6.42606 -84.291
rradius 23.1039
rwrist 17.7999
rhand -15.9616 15.917
rfingers 7.12502
rthumb 10.2372 -13.8139
lclavicle -7.63519e-014 -2.3059e-014
lhumerus -31.0426 11.8527 76.5565
lradius 17.947
lwrist -12.1069
lhand -12.6304 14.7822
lfingers 7.12502
lthumb 13.4495 44.328
rfemur -21.7578 1.91955 19.0498
rtibia 65.1404
rfoot -7.2911 -10.8515
rtoes -10.3046
lfemur -9.17354 -7.84421 -30.6482
ltibia 29.0502
lfoot -14.3093 7.94857
ltoes -3.50081
197
root 0.697952 15.6055 0.376811 -186.997 55.8753 -187.102
lowerback 9.04881 1.14315 -4.25511
upperback -0.838852 0.991719 -1.86931
thorax -6.00471 0.614717 0.294156
lowerneck -11.9497 -7.67905 -11.5057
upperneck 15.8715 -10.0447 10.3329
head 7.98966 -4.5337 4.20495
rclavicle -1.52195e-015 -7.95139e-015
rhumerus -33.6458 -6.42029 -84.2297
rradius 23.1818
rwrist 17.5907
rhand -16.0521 15.5594
rfingers 7.12502
rthumb 10.1499 -14.1758
lclavicle -1.52195e-015 -7.95139e-015
lhumerus -30.3549 10.9558 77.1576
lradius 18.2914
lwrist -11.0561
lhand -12.7425 14.8974
lfingers 7.12502
lthumb 13.3414 44.4503
rfemur -22.7553 2.15371 18.6624
rtibia 64.3946
rfoot -8.45531 -10.8207
rtoes -8.77381
lfemur -8.47569 -7.99005 -31.1583
ltibia 29.1492
lfoot -14.5483 7.89224
ltoes -1.94565
198
root 0.799768 15.5837 0.301849 -187.613 55.6993 -187.827
lowerback 9.11047 1.1169 -4.71685
upperback -0.752097 0.907574 -1.94219
thorax -5.95214 0.587932 0.488359
lowerneck -12.0503 -7.67598 -11.4923
upperneck 15.9108 -10.029 10.2937
head 8.01588 -4.52588 4.18884
rclavicle -1.76856e-014 -5.96354e-016
rhumerus -33.6814 -6.12373 -84.2549
rradius 23.2215
rwrist 16.9372
rhand -16.5361 14.6466
rfingers 7.12502
rthumb 9.68296 -15.1109
lclavicle -1.76856e-014 -5.96354e-016
lhumerus -29.7529 10.1226 77.8331
lradius 18.7588
lwrist -9.8063
lhand -13.0664 14.5877
lfingers 7.12502
lthumb 13.0292 44.1608
rfemur -23.7782 2.61554 18.0791
rtibia 63.4838
rfoot -10.3834 -10.7065
rtoes -5.84331
lfemur -7.92715 -8.00066 -31.7849
ltibia 29.2654
lfoot -15.2267 8.04798
ltoes -1.56327
199
root 0.895469 15.5686 0.243111 -186.795 55.5904 -186.972
lowerback 9.31677 1.05599 -4.41272
upperback -0.776804 0.85035 -1.73919
thorax -6.09051 0.552505 0.535188
lowerneck -12.1263 -7.69557 -11.4471
upperneck 15.9642 -10.0417 10.189
head 8.04039 -4.53595 4.14237
rclavicle 7.99736e-014 9.93923e-016
rhumerus -33.7692 -5.717 -84.2963
rradius 23.2824
rwrist 16.2929
rhand -16.7974 14.2459
rfingers 7.12502
rthumb 9.43085 -15.5231
lclavicle 7.99736e-014 9.93923e-016
lhumerus -29.2452 9.17745 78.5365
lradius 19.3618
lwrist -8.49282
lhand -13.2522 14.4051
lfingers 7.12502
lthumb 12.85 43.9895
rfemur -24.8815 3.37045 18.5772
rtibia 62.3327
rfoot -12.0628 -10.6057
rtoes 1.28981
lfemur -7.59232 -8.10704 -31.3269
ltibia 29.269
lfoot -15.9776 8.3001
ltoes -3.73438
